<?xml version="1.0" standalone="no"?>
<svg xmlns:xlink="http://www.w3.org/1999/xlink" id="wave" style="transform:rotate(180deg); transition: 0.3s" viewBox="0 0 1440 150" version="1.1" xmlns="http://www.w3.org/2000/svg"><defs><linearGradient id="sw-gradient-0" x1="0" x2="0" y1="1" y2="0"><stop stop-color="rgba(127, 34, 254, 1)" offset="0%"/><stop stop-color="rgba(185, 143, 243, 1)" offset="100%"/></linearGradient></defs><path style="transform:translate(0, 0px); opacity:1" fill="url(#sw-gradient-0)" d="M0,15L120,15C240,15,480,15,720,30C960,45,1200,75,1440,77.5C1680,80,1920,55,2160,40C2400,25,2640,20,2880,22.5C3120,25,3360,35,3600,35C3840,35,4080,25,4320,35C4560,45,4800,75,5040,82.5C5280,90,5520,75,5760,75C6000,75,6240,90,6480,90C6720,90,6960,75,7200,72.5C7440,70,7680,80,7920,85C8160,90,8400,90,8640,87.5C8880,85,9120,80,9360,72.5C9600,65,9840,55,10080,50C10320,45,10560,45,10800,45C11040,45,11280,45,11520,40C11760,35,12000,25,12240,37.5C12480,50,12720,85,12960,105C13200,125,13440,130,13680,130C13920,130,14160,125,14400,122.5C14640,120,14880,120,15120,112.5C15360,105,15600,90,15840,85C16080,80,16320,85,16560,75C16800,65,17040,40,17160,27.5L17280,15L17280,150L17160,150C17040,150,16800,150,16560,150C16320,150,16080,150,15840,150C15600,150,15360,150,15120,150C14880,150,14640,150,14400,150C14160,150,13920,150,13680,150C13440,150,13200,150,12960,150C12720,150,12480,150,12240,150C12000,150,11760,150,11520,150C11280,150,11040,150,10800,150C10560,150,10320,150,10080,150C9840,150,9600,150,9360,150C9120,150,8880,150,8640,150C8400,150,8160,150,7920,150C7680,150,7440,150,7200,150C6960,150,6720,150,6480,150C6240,150,6000,150,5760,150C5520,150,5280,150,5040,150C4800,150,4560,150,4320,150C4080,150,3840,150,3600,150C3360,150,3120,150,2880,150C2640,150,2400,150,2160,150C1920,150,1680,150,1440,150C1200,150,960,150,720,150C480,150,240,150,120,150L0,150Z"/><defs><linearGradient id="sw-gradient-1" x1="0" x2="0" y1="1" y2="0"><stop stop-color="rgba(127, 34, 254, 1)" offset="0%"/><stop stop-color="rgba(185, 143, 243, 1)" offset="100%"/></linearGradient></defs><path style="transform:translate(0, 50px); opacity:0.9" fill="url(#sw-gradient-1)" d="M0,90L120,75C240,60,480,30,720,27.5C960,25,1200,50,1440,72.5C1680,95,1920,115,2160,107.5C2400,100,2640,65,2880,55C3120,45,3360,60,3600,55C3840,50,4080,25,4320,15C4560,5,4800,10,5040,27.5C5280,45,5520,75,5760,85C6000,95,6240,85,6480,72.5C6720,60,6960,45,7200,47.5C7440,50,7680,70,7920,72.5C8160,75,8400,60,8640,45C8880,30,9120,15,9360,17.5C9600,20,9840,40,10080,52.5C10320,65,10560,70,10800,77.5C11040,85,11280,95,11520,100C11760,105,12000,105,12240,95C12480,85,12720,65,12960,50C13200,35,13440,25,13680,27.5C13920,30,14160,45,14400,55C14640,65,14880,70,15120,65C15360,60,15600,45,15840,32.5C16080,20,16320,10,16560,12.5C16800,15,17040,30,17160,37.5L17280,45L17280,150L17160,150C17040,150,16800,150,16560,150C16320,150,16080,150,15840,150C15600,150,15360,150,15120,150C14880,150,14640,150,14400,150C14160,150,13920,150,13680,150C13440,150,13200,150,12960,150C12720,150,12480,150,12240,150C12000,150,11760,150,11520,150C11280,150,11040,150,10800,150C10560,150,10320,150,10080,150C9840,150,9600,150,9360,150C9120,150,8880,150,8640,150C8400,150,8160,150,7920,150C7680,150,7440,150,7200,150C6960,150,6720,150,6480,150C6240,150,6000,150,5760,150C5520,150,5280,150,5040,150C4800,150,4560,150,4320,150C4080,150,3840,150,3600,150C3360,150,3120,150,2880,150C2640,150,2400,150,2160,150C1920,150,1680,150,1440,150C1200,150,960,150,720,150C480,150,240,150,120,150L0,150Z"/></svg>